# MagicaVoxel @ Ephtracy

# group
o 

# material
mtllib feather.mtl
usemtl palette

# normals
vn -1 0 0
vn 1 0 0
vn 0 0 1
vn 0 0 -1
vn 0 -1 0
vn 0 1 0

# texcoords
vt 0.681641 0.5
vt 0.724609 0.5
vt 0.912109 0.5
vt 0.919922 0.5

# verts
v -0.2 0 0.7
v -0.2 0 0.6
v -0.2 0.1 0.7
v -0.2 0.1 0.6
v -0.1 0.1 0.7
v -0.1 0.1 0.6
v -0.1 0.3 0.7
v -0.1 0.3 0.6
v -0.1 1.6 -0.6
v -0.1 1.6 -0.7
v -0.1 1.7 -0.6
v -0.1 1.7 -0.7
v 0 0.2 0.6
v 0 0.2 0.5
v 0 0.3 0.6
v 0 0.3 0.5
v 0 0.3 0.4
v 0 0.4 0.6
v 0 0.4 0.4
v 0 1.3 -0.5
v 0 1.3 -0.6
v 0 1.4 -0.4
v 0 1.4 -0.5
v 0 1.4 -0.6
v 0 1.4 -0.7
v 0 1.5 -0.3
v 0 1.5 -0.4
v 0 1.5 -0.5
v 0 1.5 -0.6
v 0 1.6 -0.3
v 0 1.6 -0.4
v 0 1.6 -0.5
v 0 1.6 -0.6
v 0 1.6 -0.7
v 0 1.7 -0.4
v 0 1.7 -0.6
v 0.1 0.4 0.5
v 0.1 0.4 0.4
v 0.1 0.4 0.3
v 0.1 0.5 0.5
v 0.1 0.5 0.4
v 0.1 0.5 0.3
v 0.1 0.5 0.2
v 0.1 0.6 0.5
v 0.1 0.6 0.4
v 0.1 0.6 0.3
v 0.1 0.6 0.2
v 0.1 0.6 0.1
v 0.1 0.7 0.3
v 0.1 0.7 0.2
v 0.1 0.7 0.1
v 0.1 0.7 0
v 0.1 0.7 -0.1
v 0.1 0.8 0.4
v 0.1 0.8 0.3
v 0.1 0.8 0.2
v 0.1 0.8 0.1
v 0.1 0.8 0
v 0.1 0.8 -0.1
v 0.1 0.8 -0.2
v 0.1 0.9 0.3
v 0.1 0.9 0.2
v 0.1 0.9 0.1
v 0.1 0.9 0
v 0.1 0.9 -0.2
v 0.1 0.9 -0.4
v 0.1 1 0.3
v 0.1 1 0.2
v 0.1 1 0.1
v 0.1 1 0
v 0.1 1 -0.1
v 0.1 1 -0.2
v 0.1 1 -0.4
v 0.1 1 -0.5
v 0.1 1.1 -0.1
v 0.1 1.1 -0.2
v 0.1 1.1 -0.4
v 0.1 1.1 -0.5
v 0.1 1.2 0.2
v 0.1 1.2 0.1
v 0.1 1.2 -0.1
v 0.1 1.2 -0.2
v 0.1 1.2 -0.3
v 0.1 1.2 -0.4
v 0.1 1.2 -0.5
v 0.1 1.2 -0.6
v 0.1 1.3 -0.2
v 0.1 1.3 -0.3
v 0.1 1.3 -0.4
v 0.1 1.3 -0.5
v 0.1 1.3 -0.6
v 0.1 1.4 0.1
v 0.1 1.4 0
v 0.1 1.4 -0.3
v 0.1 1.4 -0.4
v 0.1 1.4 -0.5
v 0.1 1.5 0
v 0.1 1.5 -0.1
v 0.1 1.5 -0.3
v 0.1 1.5 -0.4
v 0.1 1.6 -0.1
v 0.1 1.6 -0.3
v -0.1 0 0.7
v -0.1 0 0.6
v -0.1 0.1 0.7
v -0.1 0.1 0.6
v 0 0.1 0.7
v 0 0.1 0.6
v 0 0.2 0.6
v 0 0.3 0.7
v 0 0.3 0.6
v 0 1.6 -0.6
v 0 1.6 -0.7
v 0 1.7 -0.6
v 0 1.7 -0.7
v 0.1 0.2 0.6
v 0.1 0.2 0.5
v 0.1 0.3 0.5
v 0.1 0.4 0.6
v 0.1 0.4 0.5
v 0.1 1.3 -0.5
v 0.1 1.3 -0.6
v 0.1 1.4 -0.6
v 0.1 1.4 -0.7
v 0.1 1.5 -0.3
v 0.1 1.5 -0.5
v 0.1 1.5 -0.6
v 0.1 1.6 -0.3
v 0.1 1.6 -0.4
v 0.1 1.6 -0.5
v 0.1 1.6 -0.6
v 0.1 1.6 -0.7
v 0.1 1.7 -0.4
v 0.1 1.7 -0.6
v 0.2 0.3 0.5
v 0.2 0.3 0.4
v 0.2 0.4 0.5
v 0.2 0.4 0.4
v 0.2 0.4 0.3
v 0.2 0.5 0.5
v 0.2 0.5 0.4
v 0.2 0.5 0.3
v 0.2 0.5 0.2
v 0.2 0.6 0.5
v 0.2 0.6 0.4
v 0.2 0.6 0.3
v 0.2 0.6 0.2
v 0.2 0.6 0.1
v 0.2 0.7 0.3
v 0.2 0.7 0.2
v 0.2 0.7 0.1
v 0.2 0.7 0
v 0.2 0.7 -0.1
v 0.2 0.8 0.4
v 0.2 0.8 0.3
v 0.2 0.8 0.2
v 0.2 0.8 0.1
v 0.2 0.8 0
v 0.2 0.8 -0.1
v 0.2 0.8 -0.2
v 0.2 0.9 0.3
v 0.2 0.9 0.2
v 0.2 0.9 0.1
v 0.2 0.9 0
v 0.2 0.9 -0.2
v 0.2 0.9 -0.4
v 0.2 1 0.3
v 0.2 1 0.2
v 0.2 1 0.1
v 0.2 1 0
v 0.2 1 -0.1
v 0.2 1 -0.2
v 0.2 1 -0.4
v 0.2 1 -0.5
v 0.2 1.1 -0.1
v 0.2 1.1 -0.2
v 0.2 1.1 -0.4
v 0.2 1.1 -0.5
v 0.2 1.2 0.2
v 0.2 1.2 0.1
v 0.2 1.2 -0.1
v 0.2 1.2 -0.2
v 0.2 1.2 -0.3
v 0.2 1.2 -0.4
v 0.2 1.2 -0.5
v 0.2 1.2 -0.6
v 0.2 1.3 -0.2
v 0.2 1.3 -0.3
v 0.2 1.3 -0.4
v 0.2 1.3 -0.5
v 0.2 1.3 -0.6
v 0.2 1.4 0.1
v 0.2 1.4 0
v 0.2 1.4 -0.3
v 0.2 1.4 -0.4
v 0.2 1.5 0
v 0.2 1.5 -0.1
v 0.2 1.5 -0.3
v 0.2 1.5 -0.5
v 0.2 1.6 -0.1
v 0.2 1.6 -0.3
v -0.2 0 0.7
v -0.2 0.1 0.7
v -0.1 0 0.7
v -0.1 0.1 0.7
v -0.1 0.3 0.7
v 0 0.1 0.7
v 0 0.3 0.7
v 0 0.2 0.6
v 0 0.3 0.6
v 0 0.4 0.6
v 0.1 0.2 0.6
v 0.1 0.4 0.6
v 0.1 0.3 0.5
v 0.1 0.4 0.5
v 0.1 0.5 0.5
v 0.1 0.6 0.5
v 0.2 0.3 0.5
v 0.2 0.4 0.5
v 0.2 0.5 0.5
v 0.2 0.6 0.5
v 0.1 0.6 0.4
v 0.1 0.8 0.4
v 0.2 0.6 0.4
v 0.2 0.8 0.4
v 0.1 0.8 0.3
v 0.1 0.9 0.3
v 0.1 1 0.3
v 0.2 0.8 0.3
v 0.2 0.9 0.3
v 0.2 1 0.3
v 0.1 1 0.2
v 0.1 1.2 0.2
v 0.2 1 0.2
v 0.2 1.2 0.2
v 0.1 1.2 0.1
v 0.1 1.4 0.1
v 0.2 1.2 0.1
v 0.2 1.4 0.1
v 0.1 1.4 0
v 0.1 1.5 0
v 0.2 1.4 0
v 0.2 1.5 0
v 0.1 1.5 -0.1
v 0.1 1.6 -0.1
v 0.2 1.5 -0.1
v 0.2 1.6 -0.1
v 0 1.5 -0.3
v 0 1.6 -0.3
v 0.1 1.5 -0.3
v 0.1 1.6 -0.3
v 0 1.4 -0.4
v 0 1.5 -0.4
v 0 1.6 -0.4
v 0 1.7 -0.4
v 0.1 1.4 -0.4
v 0.1 1.5 -0.4
v 0.1 1.6 -0.4
v 0.1 1.7 -0.4
v 0 1.3 -0.5
v 0 1.4 -0.5
v 0.1 1.3 -0.5
v 0.1 1.4 -0.5
v -0.1 1.6 -0.6
v -0.1 1.7 -0.6
v 0 1.6 -0.6
v 0 1.7 -0.6
v -0.2 0 0.6
v -0.2 0.1 0.6
v -0.1 0 0.6
v -0.1 0.1 0.6
v -0.1 0.3 0.6
v 0 0.1 0.6
v 0 0.2 0.6
v 0 0.3 0.6
v 0 0.2 0.5
v 0 0.3 0.5
v 0.1 0.2 0.5
v 0.1 0.3 0.5
v 0 0.3 0.4
v 0 0.4 0.4
v 0.1 0.4 0.4
v 0.2 0.3 0.4
v 0.2 0.4 0.4
v 0.1 0.4 0.3
v 0.1 0.5 0.3
v 0.2 0.4 0.3
v 0.2 0.5 0.3
v 0.1 0.5 0.2
v 0.1 0.6 0.2
v 0.2 0.5 0.2
v 0.2 0.6 0.2
v 0.1 0.6 0.1
v 0.1 0.7 0.1
v 0.2 0.6 0.1
v 0.2 0.7 0.1
v 0.1 0.7 -0.1
v 0.1 0.8 -0.1
v 0.2 0.7 -0.1
v 0.2 0.8 -0.1
v 0.1 0.8 -0.2
v 0.1 0.9 -0.2
v 0.2 0.8 -0.2
v 0.2 0.9 -0.2
v 0.1 1.5 -0.3
v 0.1 1.6 -0.3
v 0.2 1.5 -0.3
v 0.2 1.6 -0.3
v 0.1 0.9 -0.4
v 0.1 1 -0.4
v 0.2 0.9 -0.4
v 0.2 1 -0.4
v 0.1 1 -0.5
v 0.1 1.1 -0.5
v 0.1 1.2 -0.5
v 0.1 1.3 -0.5
v 0.1 1.5 -0.5
v 0.2 1 -0.5
v 0.2 1.1 -0.5
v 0.2 1.2 -0.5
v 0.2 1.3 -0.5
v 0.2 1.5 -0.5
v 0 1.3 -0.6
v 0 1.4 -0.6
v 0 1.6 -0.6
v 0 1.7 -0.6
v 0.1 1.2 -0.6
v 0.1 1.3 -0.6
v 0.1 1.4 -0.6
v 0.1 1.6 -0.6
v 0.1 1.7 -0.6
v 0.2 1.2 -0.6
v 0.2 1.3 -0.6
v -0.1 1.6 -0.7
v -0.1 1.7 -0.7
v 0 1.4 -0.7
v 0 1.6 -0.7
v 0 1.7 -0.7
v 0.1 1.4 -0.7
v 0.1 1.6 -0.7
v -0.2 0 0.7
v -0.1 0 0.7
v -0.2 0 0.6
v -0.1 0 0.6
v -0.1 0.1 0.7
v 0 0.1 0.7
v -0.1 0.1 0.6
v 0 0.1 0.6
v 0 0.2 0.6
v 0.1 0.2 0.6
v 0 0.2 0.5
v 0.1 0.2 0.5
v 0 0.3 0.5
v 0.1 0.3 0.5
v 0.2 0.3 0.5
v 0 0.3 0.4
v 0.2 0.3 0.4
v 0.1 0.4 0.4
v 0.2 0.4 0.4
v 0.1 0.4 0.3
v 0.2 0.4 0.3
v 0.1 0.5 0.3
v 0.2 0.5 0.3
v 0.1 0.5 0.2
v 0.2 0.5 0.2
v 0.1 0.6 0.2
v 0.2 0.6 0.2
v 0.1 0.6 0.1
v 0.2 0.6 0.1
v 0.1 0.7 0.1
v 0.2 0.7 0.1
v 0.1 0.7 0
v 0.2 0.7 0
v 0.1 0.7 -0.1
v 0.2 0.7 -0.1
v 0.1 0.8 -0.1
v 0.2 0.8 -0.1
v 0.1 0.8 -0.2
v 0.2 0.8 -0.2
v 0.1 0.9 -0.2
v 0.2 0.9 -0.2
v 0.1 0.9 -0.4
v 0.2 0.9 -0.4
v 0.1 1 -0.4
v 0.2 1 -0.4
v 0.1 1 -0.5
v 0.2 1 -0.5
v 0.1 1.2 -0.5
v 0.2 1.2 -0.5
v 0.1 1.2 -0.6
v 0.2 1.2 -0.6
v 0 1.3 -0.5
v 0.1 1.3 -0.5
v 0 1.3 -0.6
v 0.1 1.3 -0.6
v 0 1.4 -0.4
v 0.1 1.4 -0.4
v 0 1.4 -0.5
v 0.1 1.4 -0.5
v 0 1.4 -0.6
v 0.1 1.4 -0.6
v 0 1.4 -0.7
v 0.1 1.4 -0.7
v 0 1.5 -0.3
v 0.1 1.5 -0.3
v 0 1.5 -0.4
v 0.1 1.5 -0.4
v -0.1 1.6 -0.6
v 0 1.6 -0.6
v -0.1 1.6 -0.7
v 0 1.6 -0.7
v -0.2 0.1 0.7
v -0.1 0.1 0.7
v -0.2 0.1 0.6
v -0.1 0.1 0.6
v -0.1 0.3 0.7
v 0 0.3 0.7
v -0.1 0.3 0.6
v 0 0.3 0.6
v 0 0.4 0.6
v 0.1 0.4 0.6
v 0.1 0.4 0.5
v 0 0.4 0.4
v 0.1 0.4 0.4
v 0.1 0.6 0.5
v 0.2 0.6 0.5
v 0.1 0.6 0.4
v 0.2 0.6 0.4
v 0.1 0.8 0.4
v 0.2 0.8 0.4
v 0.1 0.8 0.3
v 0.2 0.8 0.3
v 0.1 1 0.3
v 0.2 1 0.3
v 0.1 1 0.2
v 0.2 1 0.2
v 0.1 1.2 0.2
v 0.2 1.2 0.2
v 0.1 1.2 0.1
v 0.2 1.2 0.1
v 0.1 1.3 -0.5
v 0.2 1.3 -0.5
v 0.1 1.3 -0.6
v 0.2 1.3 -0.6
v 0.1 1.4 0.1
v 0.2 1.4 0.1
v 0.1 1.4 0
v 0.2 1.4 0
v 0.1 1.5 0
v 0.2 1.5 0
v 0.1 1.5 -0.1
v 0.2 1.5 -0.1
v 0.1 1.5 -0.3
v 0.2 1.5 -0.3
v 0.1 1.5 -0.5
v 0.2 1.5 -0.5
v 0.1 1.6 -0.1
v 0.2 1.6 -0.1
v 0 1.6 -0.3
v 0.1 1.6 -0.3
v 0.2 1.6 -0.3
v 0 1.6 -0.4
v 0.1 1.6 -0.4
v 0 1.6 -0.6
v 0.1 1.6 -0.6
v 0 1.6 -0.7
v 0.1 1.6 -0.7
v 0 1.7 -0.4
v 0.1 1.7 -0.4
v -0.1 1.7 -0.6
v 0 1.7 -0.6
v 0.1 1.7 -0.6
v -0.1 1.7 -0.7
v 0 1.7 -0.7

# faces
f 3/3/1 2/3/1 1/3/1
f 4/3/1 2/3/1 3/3/1
f 7/3/1 6/3/1 5/3/1
f 8/3/1 6/3/1 7/3/1
f 11/1/1 10/1/1 9/1/1
f 12/1/1 10/1/1 11/1/1
f 15/3/1 14/3/1 13/3/1
f 16/3/1 14/3/1 15/3/1
f 18/3/1 16/3/1 15/3/1
f 18/3/1 17/3/1 16/3/1
f 19/3/1 17/3/1 18/3/1
f 23/3/1 21/3/1 20/3/1
f 24/3/1 21/3/1 23/3/1
f 27/4/1 23/4/1 22/4/1
f 28/3/1 25/3/1 24/3/1
f 28/3/1 24/3/1 23/3/1
f 28/4/1 23/4/1 27/4/1
f 29/3/1 25/3/1 28/3/1
f 30/3/1 27/3/1 26/3/1
f 30/3/1 28/3/1 27/3/1
f 31/3/1 28/3/1 30/3/1
f 32/1/1 29/1/1 28/1/1
f 32/3/1 28/3/1 31/3/1
f 33/3/1 25/3/1 29/3/1
f 33/1/1 29/1/1 32/1/1
f 34/3/1 25/3/1 33/3/1
f 35/3/1 32/3/1 31/3/1
f 35/3/1 33/3/1 32/3/1
f 36/3/1 33/3/1 35/3/1
f 40/2/1 38/2/1 37/2/1
f 41/3/1 39/3/1 38/3/1
f 41/2/1 38/2/1 40/2/1
f 42/3/1 39/3/1 41/3/1
f 44/3/1 41/3/1 40/3/1
f 45/1/1 42/1/1 41/1/1
f 45/3/1 41/3/1 44/3/1
f 46/3/1 43/3/1 42/3/1
f 46/1/1 42/1/1 45/1/1
f 47/3/1 43/3/1 46/3/1
f 49/3/1 46/3/1 45/3/1
f 49/1/1 47/1/1 46/1/1
f 50/3/1 48/3/1 47/3/1
f 50/1/1 47/1/1 49/1/1
f 51/3/1 48/3/1 50/3/1
f 54/3/1 49/3/1 45/3/1
f 54/3/1 50/3/1 49/3/1
f 55/3/1 50/3/1 54/3/1
f 56/2/1 51/2/1 50/2/1
f 56/3/1 50/3/1 55/3/1
f 57/3/1 52/3/1 51/3/1
f 57/2/1 51/2/1 56/2/1
f 58/1/1 53/1/1 52/1/1
f 58/3/1 52/3/1 57/3/1
f 59/1/1 53/1/1 58/1/1
f 61/3/1 56/3/1 55/3/1
f 62/1/1 57/1/1 56/1/1
f 62/3/1 56/3/1 61/3/1
f 63/3/1 60/3/1 59/3/1
f 63/1/1 57/1/1 62/1/1
f 63/3/1 59/3/1 58/3/1
f 63/3/1 58/3/1 57/3/1
f 64/3/1 60/3/1 63/3/1
f 65/3/1 60/3/1 64/3/1
f 67/1/1 62/1/1 61/1/1
f 68/3/1 63/3/1 62/3/1
f 68/1/1 62/1/1 67/1/1
f 69/1/1 64/1/1 63/1/1
f 69/3/1 63/3/1 68/3/1
f 70/3/1 66/3/1 65/3/1
f 70/1/1 64/1/1 69/1/1
f 70/3/1 65/3/1 64/3/1
f 71/3/1 66/3/1 70/3/1
f 72/3/1 66/3/1 71/3/1
f 73/3/1 66/3/1 72/3/1
f 75/1/1 71/1/1 70/1/1
f 75/3/1 72/3/1 71/3/1
f 76/1/1 73/1/1 72/1/1
f 76/3/1 72/3/1 75/3/1
f 77/3/1 74/3/1 73/3/1
f 77/1/1 73/1/1 76/1/1
f 78/3/1 74/3/1 77/3/1
f 79/3/1 69/3/1 68/3/1
f 79/3/1 70/3/1 69/3/1
f 80/3/1 70/3/1 79/3/1
f 81/1/1 76/1/1 75/1/1
f 81/1/1 75/1/1 70/1/1
f 82/3/1 77/3/1 76/3/1
f 82/1/1 76/1/1 81/1/1
f 83/3/1 77/3/1 82/3/1
f 84/1/1 78/1/1 77/1/1
f 84/3/1 77/3/1 83/3/1
f 85/1/1 78/1/1 84/1/1
f 87/4/1 83/4/1 82/4/1
f 87/3/1 82/3/1 81/3/1
f 88/3/1 85/3/1 84/3/1
f 88/4/1 83/4/1 87/4/1
f 88/3/1 86/3/1 85/3/1
f 88/3/1 84/3/1 83/3/1
f 89/3/1 86/3/1 88/3/1
f 90/3/1 86/3/1 89/3/1
f 91/3/1 86/3/1 90/3/1
f 92/3/1 70/3/1 80/3/1
f 93/1/1 81/1/1 70/1/1
f 93/3/1 70/3/1 92/3/1
f 94/3/1 88/3/1 87/3/1
f 94/1/1 89/1/1 88/1/1
f 95/3/1 90/3/1 89/3/1
f 95/1/1 89/1/1 94/1/1
f 96/3/1 90/3/1 95/3/1
f 97/1/1 81/1/1 93/1/1
f 98/3/1 87/3/1 81/3/1
f 98/1/1 81/1/1 97/1/1
f 98/3/1 95/3/1 94/3/1
f 98/3/1 94/3/1 87/3/1
f 99/3/1 95/3/1 98/3/1
f 100/3/1 95/3/1 99/3/1
f 101/3/1 99/3/1 98/3/1
f 102/3/1 99/3/1 101/3/1
f 103/3/2 104/3/2 105/3/2
f 105/3/2 104/3/2 106/3/2
f 107/3/2 108/3/2 109/3/2
f 107/3/2 109/3/2 110/3/2
f 110/3/2 109/3/2 111/3/2
f 112/1/2 113/1/2 114/1/2
f 114/1/2 113/1/2 115/1/2
f 116/3/2 117/3/2 118/3/2
f 116/3/2 118/3/2 119/3/2
f 119/3/2 118/3/2 120/3/2
f 121/3/2 122/3/2 123/3/2
f 121/3/2 123/3/2 126/3/2
f 123/3/2 124/3/2 126/3/2
f 126/3/2 124/3/2 127/3/2
f 125/3/2 126/3/2 128/3/2
f 128/3/2 126/3/2 129/3/2
f 126/1/2 127/1/2 130/1/2
f 129/3/2 126/3/2 130/3/2
f 127/3/2 124/3/2 131/3/2
f 130/1/2 127/1/2 131/1/2
f 131/3/2 124/3/2 132/3/2
f 129/3/2 130/3/2 133/3/2
f 130/3/2 131/3/2 133/3/2
f 133/3/2 131/3/2 134/3/2
f 135/3/2 136/3/2 137/3/2
f 137/3/2 136/3/2 138/3/2
f 137/2/2 138/2/2 140/2/2
f 138/3/2 139/3/2 141/3/2
f 140/2/2 138/2/2 141/2/2
f 141/3/2 139/3/2 142/3/2
f 140/3/2 141/3/2 144/3/2
f 141/1/2 142/1/2 145/1/2
f 144/3/2 141/3/2 145/3/2
f 142/3/2 143/3/2 146/3/2
f 145/1/2 142/1/2 146/1/2
f 146/3/2 143/3/2 147/3/2
f 145/3/2 146/3/2 149/3/2
f 146/1/2 147/1/2 149/1/2
f 147/3/2 148/3/2 150/3/2
f 149/1/2 147/1/2 150/1/2
f 150/3/2 148/3/2 151/3/2
f 145/3/2 149/3/2 154/3/2
f 149/3/2 150/3/2 154/3/2
f 154/3/2 150/3/2 155/3/2
f 150/2/2 151/2/2 156/2/2
f 155/3/2 150/3/2 156/3/2
f 151/3/2 152/3/2 157/3/2
f 156/2/2 151/2/2 157/2/2
f 152/1/2 153/1/2 158/1/2
f 157/3/2 152/3/2 158/3/2
f 158/1/2 153/1/2 159/1/2
f 155/3/2 156/3/2 161/3/2
f 156/1/2 157/1/2 162/1/2
f 161/3/2 156/3/2 162/3/2
f 159/3/2 160/3/2 163/3/2
f 162/1/2 157/1/2 163/1/2
f 158/3/2 159/3/2 163/3/2
f 157/3/2 158/3/2 163/3/2
f 163/3/2 160/3/2 164/3/2
f 164/3/2 160/3/2 165/3/2
f 161/1/2 162/1/2 167/1/2
f 162/3/2 163/3/2 168/3/2
f 167/1/2 162/1/2 168/1/2
f 163/1/2 164/1/2 169/1/2
f 168/3/2 163/3/2 169/3/2
f 165/3/2 166/3/2 170/3/2
f 169/1/2 164/1/2 170/1/2
f 164/3/2 165/3/2 170/3/2
f 170/3/2 166/3/2 171/3/2
f 171/3/2 166/3/2 172/3/2
f 172/3/2 166/3/2 173/3/2
f 170/1/2 171/1/2 175/1/2
f 171/3/2 172/3/2 175/3/2
f 172/1/2 173/1/2 176/1/2
f 175/3/2 172/3/2 176/3/2
f 173/3/2 174/3/2 177/3/2
f 176/1/2 173/1/2 177/1/2
f 177/3/2 174/3/2 178/3/2
f 168/3/2 169/3/2 179/3/2
f 169/3/2 170/3/2 179/3/2
f 179/3/2 170/3/2 180/3/2
f 175/1/2 176/1/2 181/1/2
f 170/1/2 175/1/2 181/1/2
f 176/3/2 177/3/2 182/3/2
f 181/1/2 176/1/2 182/1/2
f 182/3/2 177/3/2 183/3/2
f 177/1/2 178/1/2 184/1/2
f 183/3/2 177/3/2 184/3/2
f 184/1/2 178/1/2 185/1/2
f 182/4/2 183/4/2 187/4/2
f 181/3/2 182/3/2 187/3/2
f 184/3/2 185/3/2 188/3/2
f 187/4/2 183/4/2 188/4/2
f 185/3/2 186/3/2 188/3/2
f 183/3/2 184/3/2 188/3/2
f 188/3/2 186/3/2 189/3/2
f 189/3/2 186/3/2 190/3/2
f 190/3/2 186/3/2 191/3/2
f 180/3/2 170/3/2 192/3/2
f 170/1/2 181/1/2 193/1/2
f 192/3/2 170/3/2 193/3/2
f 187/3/2 188/3/2 194/3/2
f 188/1/2 189/1/2 194/1/2
f 189/3/2 190/3/2 195/3/2
f 194/1/2 189/1/2 195/1/2
f 193/1/2 181/1/2 196/1/2
f 181/3/2 187/3/2 197/3/2
f 196/1/2 181/1/2 197/1/2
f 194/3/2 195/3/2 197/3/2
f 187/3/2 194/3/2 197/3/2
f 197/3/2 195/3/2 198/3/2
f 195/3/2 190/3/2 199/3/2
f 198/3/2 195/3/2 199/3/2
f 197/3/2 198/3/2 200/3/2
f 200/3/2 198/3/2 201/3/2
f 204/3/3 203/3/3 202/3/3
f 205/3/3 203/3/3 204/3/3
f 207/3/3 206/3/3 205/3/3
f 208/3/3 206/3/3 207/3/3
f 212/3/3 210/3/3 209/3/3
f 212/3/3 211/3/3 210/3/3
f 213/3/3 211/3/3 212/3/3
f 218/3/3 215/3/3 214/3/3
f 219/2/3 216/2/3 215/2/3
f 219/3/3 215/3/3 218/3/3
f 220/3/3 217/3/3 216/3/3
f 220/2/3 216/2/3 219/2/3
f 221/3/3 217/3/3 220/3/3
f 224/3/3 223/3/3 222/3/3
f 225/3/3 223/3/3 224/3/3
f 229/3/3 227/3/3 226/3/3
f 230/1/3 228/1/3 227/1/3
f 230/3/3 227/3/3 229/3/3
f 231/1/3 228/1/3 230/1/3
f 234/3/3 233/3/3 232/3/3
f 235/3/3 233/3/3 234/3/3
f 238/3/3 237/3/3 236/3/3
f 239/3/3 237/3/3 238/3/3
f 242/1/3 241/1/3 240/1/3
f 243/1/3 241/1/3 242/1/3
f 246/3/3 245/3/3 244/3/3
f 247/3/3 245/3/3 246/3/3
f 250/3/3 249/3/3 248/3/3
f 251/3/3 249/3/3 250/3/3
f 256/4/3 253/4/3 252/4/3
f 257/4/3 253/4/3 256/4/3
f 258/3/3 255/3/3 254/3/3
f 259/3/3 255/3/3 258/3/3
f 262/3/3 261/3/3 260/3/3
f 263/3/3 261/3/3 262/3/3
f 266/1/3 265/1/3 264/1/3
f 267/1/3 265/1/3 266/1/3
f 268/3/4 269/3/4 270/3/4
f 270/3/4 269/3/4 271/3/4
f 271/3/4 272/3/4 273/3/4
f 273/3/4 272/3/4 274/3/4
f 274/3/4 272/3/4 275/3/4
f 276/3/4 277/3/4 278/3/4
f 278/3/4 277/3/4 279/3/4
f 280/3/4 281/3/4 282/3/4
f 280/3/4 282/3/4 283/3/4
f 283/3/4 282/3/4 284/3/4
f 285/3/4 286/3/4 287/3/4
f 287/3/4 286/3/4 288/3/4
f 289/3/4 290/3/4 291/3/4
f 291/3/4 290/3/4 292/3/4
f 293/3/4 294/3/4 295/3/4
f 295/3/4 294/3/4 296/3/4
f 297/1/4 298/1/4 299/1/4
f 299/1/4 298/1/4 300/1/4
f 301/3/4 302/3/4 303/3/4
f 303/3/4 302/3/4 304/3/4
f 305/3/4 306/3/4 307/3/4
f 307/3/4 306/3/4 308/3/4
f 309/3/4 310/3/4 311/3/4
f 311/3/4 310/3/4 312/3/4
f 313/3/4 314/3/4 318/3/4
f 314/1/4 315/1/4 319/1/4
f 318/3/4 314/3/4 319/3/4
f 319/1/4 315/1/4 320/1/4
f 316/3/4 317/3/4 321/3/4
f 321/3/4 317/3/4 322/3/4
f 323/3/4 324/3/4 328/3/4
f 328/3/4 324/3/4 329/3/4
f 325/3/4 326/3/4 330/3/4
f 330/3/4 326/3/4 331/3/4
f 327/3/4 328/3/4 332/3/4
f 332/3/4 328/3/4 333/3/4
f 334/1/4 335/1/4 337/1/4
f 337/1/4 335/1/4 338/1/4
f 336/3/4 337/3/4 339/3/4
f 339/3/4 337/3/4 340/3/4
f 343/3/5 342/3/5 341/3/5
f 344/3/5 342/3/5 343/3/5
f 347/3/5 346/3/5 345/3/5
f 348/3/5 346/3/5 347/3/5
f 351/3/5 350/3/5 349/3/5
f 352/3/5 350/3/5 351/3/5
f 356/3/5 354/3/5 353/3/5
f 356/3/5 355/3/5 354/3/5
f 357/3/5 355/3/5 356/3/5
f 360/3/5 359/3/5 358/3/5
f 361/3/5 359/3/5 360/3/5
f 364/3/5 363/3/5 362/3/5
f 365/3/5 363/3/5 364/3/5
f 368/3/5 367/3/5 366/3/5
f 369/3/5 367/3/5 368/3/5
f 372/3/5 371/3/5 370/3/5
f 373/3/5 371/3/5 372/3/5
f 374/1/5 373/1/5 372/1/5
f 375/1/5 373/1/5 374/1/5
f 378/3/5 377/3/5 376/3/5
f 379/3/5 377/3/5 378/3/5
f 382/3/5 381/3/5 380/3/5
f 383/3/5 381/3/5 382/3/5
f 386/3/5 385/3/5 384/3/5
f 387/3/5 385/3/5 386/3/5
f 390/3/5 389/3/5 388/3/5
f 391/3/5 389/3/5 390/3/5
f 394/3/5 393/3/5 392/3/5
f 395/3/5 393/3/5 394/3/5
f 398/4/5 397/4/5 396/4/5
f 399/4/5 397/4/5 398/4/5
f 402/3/5 401/3/5 400/3/5
f 403/3/5 401/3/5 402/3/5
f 406/3/5 405/3/5 404/3/5
f 407/3/5 405/3/5 406/3/5
f 410/1/5 409/1/5 408/1/5
f 411/1/5 409/1/5 410/1/5
f 412/3/6 413/3/6 414/3/6
f 414/3/6 413/3/6 415/3/6
f 416/3/6 417/3/6 418/3/6
f 418/3/6 417/3/6 419/3/6
f 420/3/6 421/3/6 422/3/6
f 420/3/6 422/3/6 423/3/6
f 423/3/6 422/3/6 424/3/6
f 425/3/6 426/3/6 427/3/6
f 427/3/6 426/3/6 428/3/6
f 429/3/6 430/3/6 431/3/6
f 431/3/6 430/3/6 432/3/6
f 433/1/6 434/1/6 435/1/6
f 435/1/6 434/1/6 436/1/6
f 437/3/6 438/3/6 439/3/6
f 439/3/6 438/3/6 440/3/6
f 441/3/6 442/3/6 443/3/6
f 443/3/6 442/3/6 444/3/6
f 445/3/6 446/3/6 447/3/6
f 447/3/6 446/3/6 448/3/6
f 449/1/6 450/1/6 451/1/6
f 451/1/6 450/1/6 452/1/6
f 453/3/6 454/3/6 455/3/6
f 455/3/6 454/3/6 456/3/6
f 457/3/6 458/3/6 460/3/6
f 460/3/6 458/3/6 461/3/6
f 459/3/6 460/3/6 462/3/6
f 462/3/6 460/3/6 463/3/6
f 464/3/6 465/3/6 466/3/6
f 466/3/6 465/3/6 467/3/6
f 468/3/6 469/3/6 471/3/6
f 471/3/6 469/3/6 472/3/6
f 470/1/6 471/1/6 473/1/6
f 473/1/6 471/1/6 474/1/6
