# MagicaVoxel @ Ephtracy

# group
o 

# material
mtllib knife.mtl
usemtl palette

# normals
vn -1 0 0
vn 1 0 0
vn 0 0 1
vn 0 0 -1
vn 0 -1 0
vn 0 1 0

# texcoords
vt 0.412109 0.5
vt 0.662109 0.5
vt 0.916016 0.5
vt 0.958984 0.5
vt 0.962891 0.5

# verts
v -0.8 0.3 0.9
v -0.8 0.3 0.8
v -0.8 0.4 0.9
v -0.8 0.4 0.8
v -0.6 0.2 0.9
v -0.6 0.2 0.8
v -0.6 0.3 0.9
v -0.6 0.3 0.8
v -0.6 0.4 0.9
v -0.6 0.4 0.8
v -0.6 0.5 0.9
v -0.6 0.5 0.8
v -0.4 0.1 0.9
v -0.4 0.1 0.8
v -0.4 0.2 0.9
v -0.4 0.2 0.8
v -0.4 0.5 0.9
v -0.4 0.5 0.8
v -0.4 0.6 0.9
v -0.4 0.6 0.8
v -0.3 0.3 0.8
v -0.3 0.3 -0.6
v -0.3 0.4 0.8
v -0.3 0.4 -0.6
v -0.2 0 0.9
v -0.2 0 0.8
v -0.2 0.1 0.9
v -0.2 0.1 0.8
v -0.2 0.3 2
v -0.2 0.3 0.9
v -0.2 0.3 -0.6
v -0.2 0.3 -1.3
v -0.2 0.4 2
v -0.2 0.4 0.9
v -0.2 0.4 -0.6
v -0.2 0.4 -1.3
v -0.2 0.6 0.9
v -0.2 0.6 0.8
v -0.2 0.7 0.9
v -0.2 0.7 0.8
v -0.1 0.2 2
v -0.1 0.2 0.9
v -0.1 0.3 2
v -0.1 0.3 0.9
v -0.1 0.3 -1.3
v -0.1 0.3 -1.8
v -0.1 0.4 2
v -0.1 0.4 0.9
v -0.1 0.4 -1.3
v -0.1 0.4 -1.8
v -0.1 0.5 2
v -0.1 0.5 0.9
v 0 0.3 -1.8
v 0 0.3 -2
v 0 0.4 -1.8
v 0 0.4 -2
v 0.1 0.3 -1.8
v 0.1 0.3 -2
v 0.1 0.4 -1.8
v 0.1 0.4 -2
v 0.2 0.2 2
v 0.2 0.2 0.9
v 0.2 0.3 2
v 0.2 0.3 0.9
v 0.2 0.3 -1.3
v 0.2 0.3 -1.8
v 0.2 0.4 2
v 0.2 0.4 0.9
v 0.2 0.4 -1.3
v 0.2 0.4 -1.8
v 0.2 0.5 2
v 0.2 0.5 0.9
v 0.3 0 0.9
v 0.3 0 0.8
v 0.3 0.1 0.9
v 0.3 0.1 0.8
v 0.3 0.3 2
v 0.3 0.3 0.9
v 0.3 0.3 -0.6
v 0.3 0.3 -1.3
v 0.3 0.4 2
v 0.3 0.4 0.9
v 0.3 0.4 -0.6
v 0.3 0.4 -1.3
v 0.3 0.6 0.9
v 0.3 0.6 0.8
v 0.3 0.7 0.9
v 0.3 0.7 0.8
v 0.4 0.3 0.8
v 0.4 0.3 -0.6
v 0.4 0.4 0.8
v 0.4 0.4 -0.6
v 0.5 0.1 0.9
v 0.5 0.1 0.8
v 0.5 0.2 0.9
v 0.5 0.2 0.8
v 0.5 0.5 0.9
v 0.5 0.5 0.8
v 0.5 0.6 0.9
v 0.5 0.6 0.8
v 0.7 0.2 0.9
v 0.7 0.2 0.8
v 0.7 0.3 0.9
v 0.7 0.3 0.8
v 0.7 0.4 0.9
v 0.7 0.4 0.8
v 0.7 0.5 0.9
v 0.7 0.5 0.8
v 0.9 0.3 0.9
v 0.9 0.3 0.8
v 0.9 0.4 0.9
v 0.9 0.4 0.8
v -0.2 0.3 2
v -0.2 0.4 2
v -0.1 0.2 2
v -0.1 0.3 2
v -0.1 0.4 2
v -0.1 0.5 2
v 0.2 0.2 2
v 0.2 0.3 2
v 0.2 0.4 2
v 0.2 0.5 2
v 0.3 0.3 2
v 0.3 0.4 2
v -0.8 0.3 0.9
v -0.8 0.4 0.9
v -0.6 0.2 0.9
v -0.6 0.3 0.9
v -0.6 0.4 0.9
v -0.6 0.5 0.9
v -0.4 0.1 0.9
v -0.4 0.2 0.9
v -0.4 0.5 0.9
v -0.4 0.6 0.9
v -0.2 0 0.9
v -0.2 0.1 0.9
v -0.2 0.3 0.9
v -0.2 0.4 0.9
v -0.2 0.6 0.9
v -0.2 0.7 0.9
v -0.1 0.2 0.9
v -0.1 0.3 0.9
v -0.1 0.4 0.9
v -0.1 0.5 0.9
v 0.2 0.2 0.9
v 0.2 0.3 0.9
v 0.2 0.4 0.9
v 0.2 0.5 0.9
v 0.3 0 0.9
v 0.3 0.1 0.9
v 0.3 0.3 0.9
v 0.3 0.4 0.9
v 0.3 0.6 0.9
v 0.3 0.7 0.9
v 0.5 0.1 0.9
v 0.5 0.2 0.9
v 0.5 0.5 0.9
v 0.5 0.6 0.9
v 0.7 0.2 0.9
v 0.7 0.3 0.9
v 0.7 0.4 0.9
v 0.7 0.5 0.9
v 0.9 0.3 0.9
v 0.9 0.4 0.9
v -0.8 0.3 0.8
v -0.8 0.4 0.8
v -0.6 0.2 0.8
v -0.6 0.3 0.8
v -0.6 0.4 0.8
v -0.6 0.5 0.8
v -0.4 0.1 0.8
v -0.4 0.2 0.8
v -0.4 0.5 0.8
v -0.4 0.6 0.8
v -0.3 0.3 0.8
v -0.3 0.4 0.8
v -0.2 0 0.8
v -0.2 0.1 0.8
v -0.2 0.6 0.8
v -0.2 0.7 0.8
v 0 0.3 0.8
v 0 0.4 0.8
v 0.1 0.3 0.8
v 0.1 0.4 0.8
v 0.3 0 0.8
v 0.3 0.1 0.8
v 0.3 0.6 0.8
v 0.3 0.7 0.8
v 0.4 0.3 0.8
v 0.4 0.4 0.8
v 0.5 0.1 0.8
v 0.5 0.2 0.8
v 0.5 0.5 0.8
v 0.5 0.6 0.8
v 0.7 0.2 0.8
v 0.7 0.3 0.8
v 0.7 0.4 0.8
v 0.7 0.5 0.8
v 0.9 0.3 0.8
v 0.9 0.4 0.8
v -0.3 0.3 -0.6
v -0.3 0.4 -0.6
v -0.2 0.3 -0.6
v -0.2 0.4 -0.6
v 0.3 0.3 -0.6
v 0.3 0.4 -0.6
v 0.4 0.3 -0.6
v 0.4 0.4 -0.6
v -0.2 0.3 -1.3
v -0.2 0.4 -1.3
v -0.1 0.3 -1.3
v -0.1 0.4 -1.3
v 0.2 0.3 -1.3
v 0.2 0.4 -1.3
v 0.3 0.3 -1.3
v 0.3 0.4 -1.3
v -0.1 0.3 -1.8
v -0.1 0.4 -1.8
v 0 0.3 -1.8
v 0 0.4 -1.8
v 0.1 0.3 -1.8
v 0.1 0.4 -1.8
v 0.2 0.3 -1.8
v 0.2 0.4 -1.8
v 0 0.3 -2
v 0 0.4 -2
v 0.1 0.3 -2
v 0.1 0.4 -2
v -0.2 0 0.9
v 0.3 0 0.9
v -0.2 0 0.8
v 0.3 0 0.8
v -0.4 0.1 0.9
v -0.2 0.1 0.9
v 0.3 0.1 0.9
v 0.5 0.1 0.9
v -0.4 0.1 0.8
v -0.2 0.1 0.8
v 0.3 0.1 0.8
v 0.5 0.1 0.8
v -0.1 0.2 2
v 0.2 0.2 2
v -0.6 0.2 0.9
v -0.4 0.2 0.9
v -0.1 0.2 0.9
v 0.2 0.2 0.9
v 0.5 0.2 0.9
v 0.7 0.2 0.9
v -0.6 0.2 0.8
v -0.4 0.2 0.8
v 0.5 0.2 0.8
v 0.7 0.2 0.8
v -0.2 0.3 2
v -0.1 0.3 2
v 0.2 0.3 2
v 0.3 0.3 2
v -0.8 0.3 0.9
v -0.6 0.3 0.9
v -0.2 0.3 0.9
v -0.1 0.3 0.9
v 0.2 0.3 0.9
v 0.3 0.3 0.9
v 0.7 0.3 0.9
v 0.9 0.3 0.9
v -0.8 0.3 0.8
v -0.6 0.3 0.8
v -0.3 0.3 0.8
v 0 0.3 0.8
v 0.1 0.3 0.8
v 0.4 0.3 0.8
v 0.7 0.3 0.8
v 0.9 0.3 0.8
v 0 0.3 0.5
v 0.1 0.3 0.5
v 0 0.3 0.4
v 0.1 0.3 0.4
v 0 0.3 0.3
v 0.1 0.3 0.3
v -0.3 0.3 -0.6
v -0.2 0.3 -0.6
v 0.3 0.3 -0.6
v 0.4 0.3 -0.6
v 0 0.3 -0.7
v 0.1 0.3 -0.7
v 0 0.3 -0.8
v 0.1 0.3 -0.8
v 0 0.3 -1
v 0.1 0.3 -1
v 0 0.3 -1.1
v 0.1 0.3 -1.1
v -0.2 0.3 -1.3
v -0.1 0.3 -1.3
v 0.2 0.3 -1.3
v 0.3 0.3 -1.3
v 0 0.3 -1.5
v 0.1 0.3 -1.5
v 0 0.3 -1.6
v 0.1 0.3 -1.6
v 0 0.3 -1.7
v 0.1 0.3 -1.7
v -0.1 0.3 -1.8
v 0 0.3 -1.8
v 0.1 0.3 -1.8
v 0.2 0.3 -1.8
v 0 0.3 -2
v 0.1 0.3 -2
v -0.2 0.4 2
v -0.1 0.4 2
v 0.2 0.4 2
v 0.3 0.4 2
v -0.8 0.4 0.9
v -0.6 0.4 0.9
v -0.2 0.4 0.9
v -0.1 0.4 0.9
v 0.2 0.4 0.9
v 0.3 0.4 0.9
v 0.7 0.4 0.9
v 0.9 0.4 0.9
v -0.8 0.4 0.8
v -0.6 0.4 0.8
v -0.3 0.4 0.8
v 0 0.4 0.8
v 0.1 0.4 0.8
v 0.4 0.4 0.8
v 0.7 0.4 0.8
v 0.9 0.4 0.8
v 0 0.4 0.5
v 0.1 0.4 0.5
v 0 0.4 0.4
v 0.1 0.4 0.4
v 0 0.4 0.3
v 0.1 0.4 0.3
v -0.3 0.4 -0.6
v -0.2 0.4 -0.6
v 0.3 0.4 -0.6
v 0.4 0.4 -0.6
v 0 0.4 -0.7
v 0.1 0.4 -0.7
v 0 0.4 -0.8
v 0.1 0.4 -0.8
v 0 0.4 -1
v 0.1 0.4 -1
v 0 0.4 -1.1
v 0.1 0.4 -1.1
v -0.2 0.4 -1.3
v -0.1 0.4 -1.3
v 0.2 0.4 -1.3
v 0.3 0.4 -1.3
v 0 0.4 -1.5
v 0.1 0.4 -1.5
v 0 0.4 -1.6
v 0.1 0.4 -1.6
v 0 0.4 -1.7
v 0.1 0.4 -1.7
v -0.1 0.4 -1.8
v 0 0.4 -1.8
v 0.1 0.4 -1.8
v 0.2 0.4 -1.8
v 0 0.4 -2
v 0.1 0.4 -2
v -0.1 0.5 2
v 0.2 0.5 2
v -0.6 0.5 0.9
v -0.4 0.5 0.9
v -0.1 0.5 0.9
v 0.2 0.5 0.9
v 0.5 0.5 0.9
v 0.7 0.5 0.9
v -0.6 0.5 0.8
v -0.4 0.5 0.8
v 0.5 0.5 0.8
v 0.7 0.5 0.8
v -0.4 0.6 0.9
v -0.2 0.6 0.9
v 0.3 0.6 0.9
v 0.5 0.6 0.9
v -0.4 0.6 0.8
v -0.2 0.6 0.8
v 0.3 0.6 0.8
v 0.5 0.6 0.8
v -0.2 0.7 0.9
v 0.3 0.7 0.9
v -0.2 0.7 0.8
v 0.3 0.7 0.8

# faces
f 3/1/1 2/1/1 1/1/1
f 4/1/1 2/1/1 3/1/1
f 7/1/1 6/1/1 5/1/1
f 8/1/1 6/1/1 7/1/1
f 11/1/1 10/1/1 9/1/1
f 12/1/1 10/1/1 11/1/1
f 15/1/1 14/1/1 13/1/1
f 16/1/1 14/1/1 15/1/1
f 19/1/1 18/1/1 17/1/1
f 20/1/1 18/1/1 19/1/1
f 23/3/1 22/3/1 21/3/1
f 24/3/1 22/3/1 23/3/1
f 27/1/1 26/1/1 25/1/1
f 28/1/1 26/1/1 27/1/1
f 33/2/1 30/2/1 29/2/1
f 34/2/1 30/2/1 33/2/1
f 35/3/1 32/3/1 31/3/1
f 36/3/1 32/3/1 35/3/1
f 39/1/1 38/1/1 37/1/1
f 40/1/1 38/1/1 39/1/1
f 43/2/1 42/2/1 41/2/1
f 44/2/1 42/2/1 43/2/1
f 49/3/1 46/3/1 45/3/1
f 50/3/1 46/3/1 49/3/1
f 51/2/1 48/2/1 47/2/1
f 52/2/1 48/2/1 51/2/1
f 55/4/1 54/4/1 53/4/1
f 56/4/1 54/4/1 55/4/1
f 57/4/2 58/4/2 59/4/2
f 59/4/2 58/4/2 60/4/2
f 61/2/2 62/2/2 63/2/2
f 63/2/2 62/2/2 64/2/2
f 65/3/2 66/3/2 69/3/2
f 69/3/2 66/3/2 70/3/2
f 67/2/2 68/2/2 71/2/2
f 71/2/2 68/2/2 72/2/2
f 73/1/2 74/1/2 75/1/2
f 75/1/2 74/1/2 76/1/2
f 77/2/2 78/2/2 81/2/2
f 81/2/2 78/2/2 82/2/2
f 79/3/2 80/3/2 83/3/2
f 83/3/2 80/3/2 84/3/2
f 85/1/2 86/1/2 87/1/2
f 87/1/2 86/1/2 88/1/2
f 89/3/2 90/3/2 91/3/2
f 91/3/2 90/3/2 92/3/2
f 93/1/2 94/1/2 95/1/2
f 95/1/2 94/1/2 96/1/2
f 97/1/2 98/1/2 99/1/2
f 99/1/2 98/1/2 100/1/2
f 101/1/2 102/1/2 103/1/2
f 103/1/2 102/1/2 104/1/2
f 105/1/2 106/1/2 107/1/2
f 107/1/2 106/1/2 108/1/2
f 109/1/2 110/1/2 111/1/2
f 111/1/2 110/1/2 112/1/2
f 116/2/3 114/2/3 113/2/3
f 117/2/3 114/2/3 116/2/3
f 119/2/3 116/2/3 115/2/3
f 119/2/3 118/2/3 117/2/3
f 119/2/3 117/2/3 116/2/3
f 120/2/3 118/2/3 119/2/3
f 121/2/3 118/2/3 120/2/3
f 122/2/3 118/2/3 121/2/3
f 123/2/3 121/2/3 120/2/3
f 124/2/3 121/2/3 123/2/3
f 128/1/3 126/1/3 125/1/3
f 129/1/3 126/1/3 128/1/3
f 132/1/3 128/1/3 127/1/3
f 132/1/3 130/1/3 129/1/3
f 132/1/3 129/1/3 128/1/3
f 133/1/3 130/1/3 132/1/3
f 136/1/3 132/1/3 131/1/3
f 136/1/3 134/1/3 133/1/3
f 136/1/3 133/1/3 132/1/3
f 137/1/3 134/1/3 136/1/3
f 138/1/3 134/1/3 137/1/3
f 139/1/3 134/1/3 138/1/3
f 141/1/3 136/1/3 135/1/3
f 141/1/3 137/1/3 136/1/3
f 142/1/3 137/1/3 141/1/3
f 143/1/3 140/1/3 139/1/3
f 143/1/3 139/1/3 138/1/3
f 144/1/3 140/1/3 143/1/3
f 145/1/3 141/1/3 135/1/3
f 148/1/3 140/1/3 144/1/3
f 149/1/3 146/1/3 145/1/3
f 149/1/3 145/1/3 135/1/3
f 150/1/3 146/1/3 149/1/3
f 151/1/3 146/1/3 150/1/3
f 152/1/3 148/1/3 147/1/3
f 153/1/3 140/1/3 148/1/3
f 153/1/3 148/1/3 152/1/3
f 154/1/3 140/1/3 153/1/3
f 155/1/3 151/1/3 150/1/3
f 155/1/3 152/1/3 151/1/3
f 155/1/3 153/1/3 152/1/3
f 156/1/3 153/1/3 155/1/3
f 157/1/3 153/1/3 156/1/3
f 158/1/3 153/1/3 157/1/3
f 159/1/3 157/1/3 156/1/3
f 160/1/3 157/1/3 159/1/3
f 161/1/3 157/1/3 160/1/3
f 162/1/3 157/1/3 161/1/3
f 163/1/3 161/1/3 160/1/3
f 164/1/3 161/1/3 163/1/3
f 165/1/4 166/1/4 168/1/4
f 168/1/4 166/1/4 169/1/4
f 167/1/4 168/1/4 172/1/4
f 169/1/4 170/1/4 172/1/4
f 168/1/4 169/1/4 172/1/4
f 172/1/4 170/1/4 173/1/4
f 171/1/4 172/1/4 175/1/4
f 173/1/4 174/1/4 175/1/4
f 172/1/4 173/1/4 175/1/4
f 175/1/4 174/1/4 176/1/4
f 171/1/4 175/1/4 178/1/4
f 176/1/4 174/1/4 179/1/4
f 177/1/4 178/1/4 181/1/4
f 178/1/4 175/1/4 181/1/4
f 179/1/4 180/1/4 182/1/4
f 176/1/4 179/1/4 182/1/4
f 177/1/4 181/1/4 183/1/4
f 182/1/4 180/1/4 184/1/4
f 177/1/4 183/1/4 185/1/4
f 185/1/4 183/1/4 186/1/4
f 184/1/4 180/1/4 187/1/4
f 187/1/4 180/1/4 188/1/4
f 186/1/4 183/1/4 189/1/4
f 184/1/4 187/1/4 190/1/4
f 186/1/4 189/1/4 191/1/4
f 189/1/4 190/1/4 191/1/4
f 191/1/4 190/1/4 192/1/4
f 190/1/4 187/1/4 193/1/4
f 192/1/4 190/1/4 193/1/4
f 193/1/4 187/1/4 194/1/4
f 192/1/4 193/1/4 195/1/4
f 195/1/4 193/1/4 196/1/4
f 196/1/4 193/1/4 197/1/4
f 197/1/4 193/1/4 198/1/4
f 196/1/4 197/1/4 199/1/4
f 199/1/4 197/1/4 200/1/4
f 201/3/4 202/3/4 203/3/4
f 203/3/4 202/3/4 204/3/4
f 205/3/4 206/3/4 207/3/4
f 207/3/4 206/3/4 208/3/4
f 209/3/4 210/3/4 211/3/4
f 211/3/4 210/3/4 212/3/4
f 213/3/4 214/3/4 215/3/4
f 215/3/4 214/3/4 216/3/4
f 217/3/4 218/3/4 219/3/4
f 219/3/4 218/3/4 220/3/4
f 221/3/4 222/3/4 223/3/4
f 223/3/4 222/3/4 224/3/4
f 225/4/4 226/4/4 227/4/4
f 227/4/4 226/4/4 228/4/4
f 231/1/5 230/1/5 229/1/5
f 232/1/5 230/1/5 231/1/5
f 237/1/5 234/1/5 233/1/5
f 238/1/5 234/1/5 237/1/5
f 239/1/5 236/1/5 235/1/5
f 240/1/5 236/1/5 239/1/5
f 245/2/5 242/2/5 241/2/5
f 246/2/5 242/2/5 245/2/5
f 249/1/5 244/1/5 243/1/5
f 250/1/5 244/1/5 249/1/5
f 251/1/5 248/1/5 247/1/5
f 252/1/5 248/1/5 251/1/5
f 259/2/5 254/2/5 253/2/5
f 260/2/5 254/2/5 259/2/5
f 261/2/5 256/2/5 255/2/5
f 262/2/5 256/2/5 261/2/5
f 265/1/5 258/1/5 257/1/5
f 266/1/5 258/1/5 265/1/5
f 271/1/5 264/1/5 263/1/5
f 272/1/5 264/1/5 271/1/5
f 273/3/5 268/3/5 267/3/5
f 273/4/5 269/4/5 268/4/5
f 274/3/5 270/3/5 269/3/5
f 274/4/5 269/4/5 273/4/5
f 275/3/5 273/3/5 267/3/5
f 275/5/5 274/5/5 273/5/5
f 276/3/5 270/3/5 274/3/5
f 276/5/5 274/5/5 275/5/5
f 277/3/5 275/3/5 267/3/5
f 277/4/5 276/4/5 275/4/5
f 278/3/5 270/3/5 276/3/5
f 278/4/5 276/4/5 277/4/5
f 279/3/5 277/3/5 267/3/5
f 280/3/5 277/3/5 279/3/5
f 281/3/5 270/3/5 278/3/5
f 282/3/5 270/3/5 281/3/5
f 283/3/5 277/3/5 280/3/5
f 283/5/5 278/5/5 277/5/5
f 284/3/5 281/3/5 278/3/5
f 284/5/5 278/5/5 283/5/5
f 285/3/5 283/3/5 280/3/5
f 285/4/5 284/4/5 283/4/5
f 286/3/5 281/3/5 284/3/5
f 286/4/5 284/4/5 285/4/5
f 287/3/5 285/3/5 280/3/5
f 287/5/5 286/5/5 285/5/5
f 288/3/5 281/3/5 286/3/5
f 288/5/5 286/5/5 287/5/5
f 289/3/5 287/3/5 280/3/5
f 289/4/5 288/4/5 287/4/5
f 290/3/5 281/3/5 288/3/5
f 290/4/5 288/4/5 289/4/5
f 291/3/5 289/3/5 280/3/5
f 292/3/5 289/3/5 291/3/5
f 293/3/5 281/3/5 290/3/5
f 294/3/5 281/3/5 293/3/5
f 295/3/5 289/3/5 292/3/5
f 295/5/5 290/5/5 289/5/5
f 296/3/5 293/3/5 290/3/5
f 296/5/5 290/5/5 295/5/5
f 297/3/5 295/3/5 292/3/5
f 297/4/5 296/4/5 295/4/5
f 298/3/5 293/3/5 296/3/5
f 298/4/5 296/4/5 297/4/5
f 299/3/5 297/3/5 292/3/5
f 299/5/5 298/5/5 297/5/5
f 300/3/5 293/3/5 298/3/5
f 300/5/5 298/5/5 299/5/5
f 301/3/5 299/3/5 292/3/5
f 302/4/5 300/4/5 299/4/5
f 302/3/5 299/3/5 301/3/5
f 303/3/5 293/3/5 300/3/5
f 303/4/5 300/4/5 302/4/5
f 304/3/5 293/3/5 303/3/5
f 305/4/5 303/4/5 302/4/5
f 306/4/5 303/4/5 305/4/5
f 307/2/6 308/2/6 313/2/6
f 313/2/6 308/2/6 314/2/6
f 309/2/6 310/2/6 315/2/6
f 315/2/6 310/2/6 316/2/6
f 311/1/6 312/1/6 319/1/6
f 319/1/6 312/1/6 320/1/6
f 317/1/6 318/1/6 325/1/6
f 325/1/6 318/1/6 326/1/6
f 321/3/6 322/3/6 327/3/6
f 322/4/6 323/4/6 327/4/6
f 323/3/6 324/3/6 328/3/6
f 327/4/6 323/4/6 328/4/6
f 321/3/6 327/3/6 329/3/6
f 327/5/6 328/5/6 329/5/6
f 328/3/6 324/3/6 330/3/6
f 329/5/6 328/5/6 330/5/6
f 321/3/6 329/3/6 331/3/6
f 329/4/6 330/4/6 331/4/6
f 330/3/6 324/3/6 332/3/6
f 331/4/6 330/4/6 332/4/6
f 321/3/6 331/3/6 333/3/6
f 333/3/6 331/3/6 334/3/6
f 332/3/6 324/3/6 335/3/6
f 335/3/6 324/3/6 336/3/6
f 334/3/6 331/3/6 337/3/6
f 331/5/6 332/5/6 337/5/6
f 332/3/6 335/3/6 338/3/6
f 337/5/6 332/5/6 338/5/6
f 334/3/6 337/3/6 339/3/6
f 337/4/6 338/4/6 339/4/6
f 338/3/6 335/3/6 340/3/6
f 339/4/6 338/4/6 340/4/6
f 334/3/6 339/3/6 341/3/6
f 339/5/6 340/5/6 341/5/6
f 340/3/6 335/3/6 342/3/6
f 341/5/6 340/5/6 342/5/6
f 334/3/6 341/3/6 343/3/6
f 341/4/6 342/4/6 343/4/6
f 342/3/6 335/3/6 344/3/6
f 343/4/6 342/4/6 344/4/6
f 334/3/6 343/3/6 345/3/6
f 345/3/6 343/3/6 346/3/6
f 344/3/6 335/3/6 347/3/6
f 347/3/6 335/3/6 348/3/6
f 346/3/6 343/3/6 349/3/6
f 343/5/6 344/5/6 349/5/6
f 344/3/6 347/3/6 350/3/6
f 349/5/6 344/5/6 350/5/6
f 346/3/6 349/3/6 351/3/6
f 349/4/6 350/4/6 351/4/6
f 350/3/6 347/3/6 352/3/6
f 351/4/6 350/4/6 352/4/6
f 346/3/6 351/3/6 353/3/6
f 351/5/6 352/5/6 353/5/6
f 352/3/6 347/3/6 354/3/6
f 353/5/6 352/5/6 354/5/6
f 346/3/6 353/3/6 355/3/6
f 353/4/6 354/4/6 356/4/6
f 355/3/6 353/3/6 356/3/6
f 354/3/6 347/3/6 357/3/6
f 356/4/6 354/4/6 357/4/6
f 357/3/6 347/3/6 358/3/6
f 356/4/6 357/4/6 359/4/6
f 359/4/6 357/4/6 360/4/6
f 361/2/6 362/2/6 365/2/6
f 365/2/6 362/2/6 366/2/6
f 363/1/6 364/1/6 369/1/6
f 369/1/6 364/1/6 370/1/6
f 367/1/6 368/1/6 371/1/6
f 371/1/6 368/1/6 372/1/6
f 373/1/6 374/1/6 377/1/6
f 377/1/6 374/1/6 378/1/6
f 375/1/6 376/1/6 379/1/6
f 379/1/6 376/1/6 380/1/6
f 381/1/6 382/1/6 383/1/6
f 383/1/6 382/1/6 384/1/6
